# xmcd
# 
# Track frame offsets:
#     150
#     15267
#     30072
#     50729
#     78152
#     91727
#     113577
#     133218
#     154417
#     176852
#     193427
#     222430
#     246340
#     267187
#     283462
#     303421
#     317095
# 
# Disc length: 4401
# 
# Revision: 2
# Processed by: cddbd v1.5.2PL0 Copyright (c) Steve Scherf et al.
# Submitted via: fre:ac v1.0.31
# 
DISCID=f2112f11
DTITLE=Blues - Blind Pig Records - 40th Anniversary Collection  Disc 1
DYEAR=2017
DGENRE=Blues
TTITLE0=Magic Slim and The Teardrops - Gambling Blues
TTITLE1=Victor Wainwright and The WildRoots - Boom Town
TTITLE2=Albert Cummings - No Doubt
TTITLE3=Popa Chubby - Hey Joe
TTITLE4=Big Walter Horton - Everybody's Fishin'
TTITLE5=Deborah Coleman - I'm A Woman
TTITLE6=James Cotton - Dust My Broom
TTITLE7=Otis Rush - Crosscut Saw
TTITLE8=Elvin Bishop - Stomp
TTITLE9=Altered Five Blues Band - Charmed and Dangerous
TTITLE10=Sena Erhardt - Last Change
TTITLE11=Damon Fowler - Thought I Had It All
TTITLE12=Kenny Neal - Old Friends
TTITLE13=Charlie Musselwhite - Chicago Sunset
TTITLE14=Eddy Clearwater - Crossover
TTITLE15=Pinetop Perkins - Just Keep On Drinking
TTITLE16=Commander Cody - Last Call For Alcohol
EXTD=YEAR: 2017
EXTT0=
EXTT1=
EXTT2=
EXTT3=
EXTT4=
EXTT5=
EXTT6=
EXTT7=
EXTT8=
EXTT9=
EXTT10=
EXTT11=
EXTT12=
EXTT13=
EXTT14=
EXTT15=
EXTT16=
PLAYORDER=
